# xmcd
#
# Track frame offsets:
#	150
#	13075
#	27397
#	40757
#	52468
#	62562
#	73236
#	83867
#	96953
#	111947
#	126698
#	138822
#	149900
#	161011
#	177445
#	192208
#	206591
#	217412
#	227861
#	240177
#	255428
#	266659
#	290728
#	307266
#	323692
#
# Disc length: 4473 seconds
#
# Revision: 1
# Processed by: cddbd v1.5.2PL0 Copyright (c) Steve Scherf et al.
# Submitted via: audiograbber 1.83.01
#
DISCID=94117719
DTITLE=Janet McBride - Mesquite Flavored Country
DYEAR=1900
DGENRE=Country
TTITLE0=Looking For Jeannie
TTITLE1=The Suitcase
TTITLE2=Like You Did
TTITLE3=When
TTITLE4=Have A Nice Day
TTITLE5=The Call
TTITLE6=We Don't Love Here
TTITLE7=Mom,Can I Come Home
TTITLE8=Cheaters
TTITLE9=Guilty
TTITLE10=A Little At A Time
TTITLE11=I'm Glad I Didn't Lose
TTITLE12=Wrong Enough
TTITLE13=Sand In The Garden
TTITLE14=The Yodeller's Dream
TTITLE15=Texas Yodel Lady
TTITLE16=I Think I Hear A Yodelling Bird
TTITLE17=The Gospel Yodel
TTITLE18=The Yodelling Tribute
TTITLE19=Montana Cowboy
TTITLE20=The Greatest Party
TTITLE21=I Guess They Didn't Know
TTITLE22=The Picture Is Clear
TTITLE23=It's Not Here
TTITLE24=Who Is This Jesus Person
EXTD=
EXTT0=
EXTT1=
EXTT2=
EXTT3=
EXTT4=
EXTT5=
EXTT6=
EXTT7=
EXTT8=
EXTT9=
EXTT10=
EXTT11=
EXTT12=
EXTT13=
EXTT14=
EXTT15=
EXTT16=
EXTT17=
EXTT18=
EXTT19=
EXTT20=
EXTT21=
EXTT22=
EXTT23=
EXTT24=
PLAYORDER=
